<?xml version="1.0" encoding="UTF-8"?><svg id="Layer_2" xmlns="http://www.w3.org/2000/svg" xmlns:xlink="http://www.w3.org/1999/xlink" viewBox="0 0 256 256"><defs><style>.cls-1{clip-path:url(#clippath);}.cls-2{fill:#fff;}</style><clipPath id="clippath"><rect class="cls-2" width="256" height="256"/></clipPath></defs><g id="Icon_and_text"><g><rect class="cls-2" width="256" height="256"/><g class="cls-1"><g><g><path class="cls-2" d="m91.74,205.74c-1.2,0-2.39-.54-3.17-1.56-1.35-1.75-1.02-4.26.73-5.61l17.99-13.84c1.75-1.35,4.26-1.02,5.61.73,1.35,1.75,1.02,4.26-.73,5.61l-17.99,13.84c-.73.56-1.58.83-2.44.83Z"/><path class="cls-2" d="m68,224c-.66,0-1.32-.16-1.93-.5-1.39-.77-2.2-2.28-2.06-3.87l2.13-23.47c.2-2.2,2.17-3.82,4.35-3.62,2.2.2,3.82,2.15,3.62,4.35l-1.31,14.36,16.48-12.68c1.75-1.35,4.26-1.02,5.61.73,1.35,1.75,1.02,4.26-.73,5.61l-23.73,18.26c-.71.55-1.57.83-2.44.83Z"/><path class="cls-2" d="m70.14,200.53c-.12,0-.24,0-.37-.02-2.2-.2-3.82-2.15-3.62-4.35l1.08-11.92c.2-2.2,2.14-3.82,4.35-3.62,2.2.2,3.82,2.15,3.62,4.35l-1.08,11.92c-.19,2.08-1.93,3.64-3.98,3.64Z"/><path class="cls-2" d="m71.22,188.62c-.22,0-.45-.02-.67-.06-13.84-2.34-25.11-5.84-34.45-10.68-1.96-1.02-2.73-3.43-1.71-5.39,1.02-1.96,3.43-2.73,5.39-1.71,8.47,4.4,19.27,7.72,32.09,9.89,2.18.37,3.65,2.43,3.28,4.61-.33,1.95-2.02,3.33-3.94,3.33Z"/><path class="cls-2" d="m118,192c-2.52,0-5.09-.03-8.36-.1-2.21-.04-3.96-1.87-3.92-4.08.05-2.21,1.89-3.94,4.08-3.92,3.21.07,5.73.09,8.19.09,46.35,0,76.33-7.44,91.63-22.74,13.27-13.27,14.37-31.12,14.37-49.78,0-15.17-.72-31.04-9.29-43.61-1.25-1.83-.77-4.31,1.05-5.56,1.83-1.24,4.31-.77,5.56,1.05,9.86,14.45,10.68,31.7,10.68,48.12,0,19.59-1.29,40.01-16.71,55.44-16.88,16.88-48.7,25.08-97.29,25.08Z"/><path class="cls-2" d="m37.94,178.33c-.62,0-1.25-.15-1.84-.45C6.48,162.5,4,136.65,4,111.48c0-19.59,1.29-40.01,16.71-55.44,16.88-16.88,48.7-25.08,97.29-25.08,55.41,0,88.24,10.3,103.32,32.4,1.25,1.83.77,4.31-1.05,5.56-1.82,1.24-4.31.77-5.56-1.05-4.88-7.15-19.72-28.91-96.71-28.91-46.35,0-76.33,7.44-91.63,22.74-13.27,13.27-14.37,31.12-14.37,49.78,0,24.55,2.09,45.96,27.79,59.3,1.96,1.02,2.73,3.43,1.71,5.39-.71,1.37-2.11,2.16-3.55,2.16Z"/><path class="cls-2" d="m184.78,205.66c-1.92,0-3.61-1.38-3.94-3.33-.37-2.18,1.1-4.24,3.28-4.61,25.91-4.38,42.71-13.14,51.37-26.76,7.86-12.36,8.51-27.74,8.51-42.44,0-24.59-2.09-46.03-27.83-59.36-1.96-1.02-2.73-3.43-1.71-5.39,1.02-1.96,3.43-2.73,5.39-1.71,29.67,15.36,32.15,41.26,32.15,66.46,0,15.87-.75,32.56-9.76,46.73-9.94,15.64-28.52,25.57-56.79,30.35-.23.04-.45.06-.67.06Z"/><path class="cls-2" d="m138,209.04c-2.21,0-4-1.79-4-4s1.79-4,4-4c2.46,0,4.99-.03,8.19-.09,2.22,0,4.04,1.71,4.08,3.92.04,2.21-1.71,4.04-3.92,4.08-3.26.07-5.84.1-8.36.1Z"/><path class="cls-2" d="m188,241.04c-.87,0-1.73-.28-2.44-.83l-41.72-32.1c-1.75-1.35-2.08-3.86-.73-5.61,1.35-1.75,3.86-2.08,5.61-.73l34.47,26.52-2.39-26.27c-.2-2.2,1.42-4.15,3.62-4.35,2.2-.2,4.15,1.42,4.35,3.62l3.22,35.38c.14,1.58-.66,3.1-2.06,3.87-.6.33-1.27.5-1.93.5Z"/></g><path class="cls-2" d="m138,209.04c-9.01,0-17.56-.29-25.43-.86-2.2-.16-3.86-2.08-3.7-4.28.16-2.2,2.06-3.87,4.28-3.7,7.68.56,16.04.84,24.85.84,2.21,0,4,1.79,4,4s-1.79,4-4,4Z"/></g><path class="cls-2" d="m72,152c-1.72,0-3.25-1.1-3.79-2.73l-4-12c-.41-1.22-.2-2.56.55-3.6s1.96-1.66,3.25-1.66c9.3,0,17.14-5.11,19.37-12h-15.37c-6.62,0-12-5.38-12-12v-20c0-6.62,5.38-12,12-12h32c6.62,0,12,5.38,12,12v24c0,20.73-12.16,30.56-22.36,35.15-10.66,4.8-21.2,4.85-21.64,4.85Zm1.4-12.45l1.43,4.3c8.55-.75,33.17-5.24,33.17-31.85v-24c0-2.21-1.79-4-4-4h-32c-2.21,0-4,1.79-4,4v20c0,2.21,1.79,4,4,4h20c2.21,0,4,1.79,4,4,0,11.65-9.74,21.39-22.6,23.55Z"/><path class="cls-2" d="m136,152c-1.72,0-3.25-1.1-3.79-2.73l-4-12c-.41-1.22-.2-2.56.55-3.6s1.96-1.66,3.25-1.66c9.3,0,17.14-5.11,19.37-12h-15.37c-6.62,0-12-5.38-12-12v-20c0-6.62,5.38-12,12-12h32c6.62,0,12,5.38,12,12v24c0,20.73-12.16,30.56-22.36,35.15-10.66,4.8-21.2,4.85-21.64,4.85Zm1.4-12.45l1.43,4.3c8.55-.75,33.17-5.24,33.17-31.85v-24c0-2.21-1.79-4-4-4h-32c-2.21,0-4,1.79-4,4v20c0,2.21,1.79,4,4,4h20c2.21,0,4,1.79,4,4,0,11.65-9.74,21.39-22.6,23.55Z"/></g></g></g></svg>